<svg preserveAspectRatio="none" overflow="visible" style="display: block;" width="18" height="18" viewBox="0 0 18 18" fill="none" xmlns="http://www.w3.org/2000/svg">
<g id="pen-tip 1" clip-path="url(#clip0_0_142)">
<path id="Vector" d="M17.844 7.42278C17.6009 7.123 17.1609 7.07667 16.8607 7.31987L13.7829 9.81453L13.3625 9.39421C13.3624 9.39403 13.3623 9.39384 13.3623 9.39384L8.60627 4.63785L8.18549 4.21707L10.6802 1.13934C10.9233 0.83937 10.8772 0.399109 10.5772 0.156C10.2773 -0.0869216 9.83701 -0.0409659 9.5939 0.258911L6.7027 3.82602C6.4773 4.10409 6.49837 4.50744 6.75136 4.76061L6.9693 4.97855L2.06518 7.77243C1.8877 7.87357 1.76326 8.04742 1.72476 8.24812L0.0126503 17.169C-0.0310682 17.3967 0.0409881 17.6313 0.204863 17.7953C0.33723 17.9275 0.515646 18 0.699283 18C0.743094 18 0.787186 17.9959 0.830997 17.9874L9.75209 16.2754C9.95278 16.2369 10.1267 16.1124 10.2279 15.9348L13.0217 11.0307L13.2396 11.2488C13.3754 11.3845 13.5545 11.4535 13.7342 11.4535C13.8895 11.4535 14.0454 11.4019 14.1743 11.2974L17.7414 8.40612C18.0411 8.16301 18.0871 7.72275 17.844 7.42278ZM9.17219 14.9629L2.80998 16.1839L7.06885 11.9389C7.30087 12.0388 7.55265 12.0922 7.81282 12.0922C8.31609 12.0922 8.78944 11.8961 9.14534 11.5402C9.8798 10.8057 9.8798 9.61038 9.14525 8.87528C8.78935 8.51938 8.316 8.32334 7.81272 8.32334C7.30945 8.32334 6.83619 8.51938 6.48029 8.87519C6.12439 9.23118 5.92835 9.70444 5.92835 10.2078C5.92835 10.4672 5.9813 10.7184 6.08067 10.9498L1.81368 15.2027L3.03724 8.82783L7.99459 6.00375L11.9964 10.0054L9.17219 14.9629ZM7.46903 10.5514C7.37721 10.4596 7.32669 10.3376 7.32669 10.2076C7.32669 10.0778 7.37731 9.95575 7.46913 9.86384C7.56085 9.77202 7.68287 9.7215 7.81282 9.7215C7.94267 9.7215 8.06478 9.77211 8.1565 9.86375C8.34601 10.0534 8.3462 10.3619 8.15669 10.5513C8.06497 10.6431 7.94285 10.6937 7.81291 10.6937C7.68306 10.6938 7.56085 10.6432 7.46903 10.5514Z" fill="#2A3A53"/>
</g>
<defs>
<clipPath id="clip0_0_142">
<rect width="18" height="18" fill="white"/>
</clipPath>
</defs>
</svg>
